<svg width="399" height="382" viewBox="0 0 399 382" fill="none" xmlns="http://www.w3.org/2000/svg">
<path d="M307.35 70.1657C298.5 52.2576 289.794 35.5413 262.255 32.577C240.669 30.285 215.915 30.1398 196.124 40.0183C178.936 48.6057 172.368 68.1564 155.682 77.2327C142.619 84.3303 126.515 82.5808 111.576 81.0986C80.7337 78.0426 51.072 89.2505 34.8806 115.838C21.3146 138.116 21.538 167.484 35.4631 189.556C40.9853 198.319 48.3907 205.86 54.2161 214.439C60.0415 223.019 64.3188 233.264 62.4595 243.342C60.8635 251.784 55.2775 258.95 51.7663 266.835C42.3818 287.883 49.7234 314.287 68.0215 329.001C80.8693 339.331 97.7311 343.968 114.377 345.97C140.711 349.133 167.532 346.329 193.379 340.622C208.892 337.214 224.605 332.73 240.461 334.349C253.908 335.732 266.388 341.416 279.093 345.87C294.047 351.104 309.967 354.718 325.823 353.312C345.358 351.585 363.329 341.493 371.214 323.737C380.343 303.17 373.608 279.677 367.168 258.186C360.337 235.266 356.427 213.607 366.482 191.053C374.988 171.953 389.927 147.964 371.94 129.467C360.385 117.587 343.355 113.836 330.643 103.621C319.136 94.3922 313.207 82.0154 307.35 70.1657Z" fill="#BFBFBF"/>
<path opacity="0.7" d="M307.35 70.1657C298.5 52.2576 289.794 35.5413 262.255 32.577C240.669 30.285 215.915 30.1398 196.124 40.0183C178.936 48.6057 172.368 68.1564 155.682 77.2327C142.619 84.3303 126.515 82.5808 111.576 81.0986C80.7337 78.0426 51.072 89.2505 34.8806 115.838C21.3146 138.116 21.538 167.484 35.4631 189.556C40.9853 198.319 48.3907 205.86 54.2161 214.439C60.0415 223.019 64.3188 233.264 62.4595 243.342C60.8635 251.784 55.2775 258.95 51.7663 266.835C42.3818 287.883 49.7234 314.287 68.0215 329.001C80.8693 339.331 97.7311 343.968 114.377 345.97C140.711 349.133 167.532 346.329 193.379 340.622C208.892 337.214 224.605 332.73 240.461 334.349C253.908 335.732 266.388 341.416 279.093 345.87C294.047 351.104 309.967 354.718 325.823 353.312C345.358 351.585 363.329 341.493 371.214 323.737C380.343 303.17 373.608 279.677 367.168 258.186C360.337 235.266 356.427 213.607 366.482 191.053C374.988 171.953 389.927 147.964 371.94 129.467C360.385 117.587 343.355 113.836 330.643 103.621C319.136 94.3922 313.207 82.0154 307.35 70.1657Z" fill="#BFBFBF"/>
<path d="M356.044 158.904L349.524 163.236L349.564 170.83L343.244 166.239L335.711 168.622L338.32 161.448L333.628 155.321L341.56 155.482L346.196 149.316L348.487 156.589L356.044 158.904Z" fill="#027EE7" stroke="#263238" stroke-miterlimit="10"/>
<path d="M51.5189 189.38L49.9548 194.583L53.5458 198.77L47.888 198.953L44.8396 203.514L42.9085 198.418L37.4342 197.059L41.903 193.727L41.5678 188.318L46.2521 191.351L51.5189 189.38Z" fill="#027EE7" stroke="#263238" stroke-miterlimit="10"/>
<path d="M143.129 256.651L141.565 261.853L145.156 266.04L139.498 266.223L136.45 270.785L134.527 265.696L129.053 264.329L133.513 260.998L133.178 255.589L137.862 258.622L143.129 256.651Z" fill="#027EE7" stroke="#263238" stroke-miterlimit="10"/>
<path d="M274.895 256.651L273.323 261.853L276.914 266.04L271.264 266.223L268.216 270.785L266.285 265.696L260.81 264.329L265.271 260.998L264.936 255.589L269.62 258.622L274.895 256.651Z" fill="#027EE7" stroke="#263238" stroke-miterlimit="10"/>
<path d="M363.258 170.662L362.156 174.314L364.678 177.248L360.712 177.37L358.573 180.571L357.225 177.004L353.386 176.049L356.514 173.711L356.283 169.921L359.563 172.053L363.258 170.662Z" fill="#027EE7" stroke="#263238" stroke-miterlimit="10"/>
<path d="M237.453 36.3282L235.881 41.531L239.472 45.7178L233.822 45.9011L230.774 50.4622L228.842 45.374L223.368 44.0064L227.829 40.6754L227.494 35.2662L232.178 38.2993L237.453 36.3282Z" fill="#027EE7" stroke="#263238" stroke-miterlimit="10"/>
<path d="M126.149 103.459C126.148 102.13 125.823 100.82 125.199 99.6333C124.575 98.4465 123.67 97.4161 122.555 96.6245C121.441 95.8329 120.148 95.3021 118.781 95.0747C117.413 94.8472 116.01 94.9294 114.681 95.3147C113.787 92.8873 112.129 90.7847 109.936 89.2959C107.743 87.8071 105.122 87.005 102.433 87C99.7445 86.995 97.1203 87.7872 94.921 89.2679C92.7217 90.7485 91.0554 92.8448 90.1509 95.2688C89.3724 95.0558 88.5666 94.9478 87.7569 94.9479C85.5831 94.979 83.4965 95.7717 81.8918 97.1761C80.2872 98.5805 79.2757 100.499 79.0486 102.569C78.8216 104.639 79.3948 106.717 80.6598 108.41C81.9247 110.103 83.7938 111.293 85.9135 111.756L119.334 111.748C121.278 111.302 123.008 110.24 124.244 108.736C125.481 107.232 126.152 105.373 126.149 103.459Z" fill="#027EE7" stroke="#263238" stroke-miterlimit="10"/>
<path d="M134.105 107.684C134.106 107.03 133.947 106.385 133.64 105.8C133.333 105.216 132.888 104.709 132.339 104.319C131.79 103.93 131.153 103.669 130.48 103.558C129.807 103.447 129.116 103.489 128.463 103.68C128.03 102.477 127.216 101.432 126.134 100.693C125.052 99.9538 123.755 99.5564 122.426 99.5564C121.096 99.5564 119.8 99.9538 118.718 100.693C117.636 101.432 116.822 102.477 116.389 103.68C115.824 103.528 115.232 103.485 114.65 103.556C114.067 103.627 113.505 103.81 112.998 104.093C112.49 104.376 112.048 104.754 111.696 105.205C111.345 105.656 111.092 106.169 110.953 106.716C110.813 107.262 110.79 107.83 110.885 108.385C110.979 108.94 111.19 109.471 111.504 109.946C111.817 110.421 112.228 110.831 112.711 111.152C113.194 111.472 113.739 111.695 114.314 111.809H130.753C131.718 111.588 132.575 111.058 133.184 110.309C133.793 109.559 134.118 108.633 134.105 107.684Z" fill="#027EE7" stroke="#263238" stroke-miterlimit="10"/>
<path d="M353.594 106.754C353.594 105.425 353.269 104.115 352.645 102.928C352.021 101.741 351.115 100.711 350 99.9193C348.886 99.1277 347.593 98.597 346.226 98.3695C344.859 98.142 343.455 98.2242 342.127 98.6095C341.228 96.1879 339.569 94.0914 337.378 92.607C335.186 91.1225 332.569 90.3227 329.885 90.3168C327.201 90.311 324.58 91.0994 322.382 92.5743C320.183 94.0491 318.515 96.1383 317.604 98.556C316.826 98.3428 316.02 98.2348 315.21 98.2351C313.036 98.2662 310.95 99.0589 309.345 100.463C307.74 101.868 306.729 103.786 306.502 105.856C306.275 107.926 306.848 110.004 308.113 111.697C309.378 113.39 311.247 114.58 313.367 115.043L346.787 114.982C348.719 114.536 350.439 113.484 351.673 111.992C352.907 110.501 353.583 108.656 353.594 106.754Z" fill="#027EE7" stroke="#263238" stroke-miterlimit="10"/>
<path d="M361.55 110.986C361.55 109.876 361.089 108.811 360.269 108.026C359.449 107.241 358.337 106.8 357.177 106.8C356.748 106.794 356.321 106.848 355.908 106.96C355.476 105.756 354.661 104.712 353.579 103.973C352.497 103.233 351.201 102.836 349.871 102.836C348.542 102.836 347.245 103.233 346.163 103.973C345.081 104.712 344.267 105.756 343.834 106.96C343.455 106.859 343.063 106.807 342.669 106.807C341.589 106.807 340.546 107.19 339.743 107.883C338.94 108.575 338.434 109.527 338.321 110.556C338.208 111.585 338.496 112.617 339.131 113.454C339.766 114.291 340.703 114.874 341.759 115.089H358.206C359.165 114.867 360.018 114.34 360.625 113.595C361.232 112.851 361.558 111.931 361.55 110.986Z" fill="#027EE7" stroke="#263238" stroke-miterlimit="10"/>
<path d="M98.3136 181.779C98.316 180.45 97.993 179.139 97.3705 177.951C96.748 176.763 95.8433 175.731 94.7291 174.939C93.6149 174.146 92.3221 173.614 90.9546 173.387C89.587 173.159 88.1827 173.241 86.8543 173.627C85.9577 171.2 84.2987 169.099 82.105 167.611C79.9113 166.123 77.2904 165.321 74.602 165.316C71.9135 165.311 69.2894 166.103 67.0896 167.583C64.8899 169.062 63.2223 171.158 62.3158 173.581C61.5365 173.371 60.7313 173.263 59.9218 173.26C57.748 173.291 55.6614 174.084 54.0568 175.488C52.4521 176.892 51.4406 178.811 51.2136 180.881C50.9865 182.951 51.5597 185.029 52.8247 186.722C54.0897 188.415 55.9588 189.605 58.0785 190.068L91.4987 190.007C93.4342 189.566 95.1587 188.515 96.3947 187.023C97.6308 185.53 98.3067 183.683 98.3136 181.779Z" fill="#027EE7" stroke="#263238" stroke-miterlimit="10"/>
<path d="M106.27 186.003C106.27 184.893 105.809 183.828 104.989 183.043C104.169 182.258 103.056 181.817 101.897 181.817C101.467 181.817 101.04 181.876 100.628 181.992C100.194 180.791 99.3793 179.75 98.298 179.013C97.2167 178.276 95.9223 177.88 94.5949 177.88C93.2675 177.88 91.9731 178.276 90.8919 179.013C89.8106 179.75 88.9962 180.791 88.5621 181.992C87.9983 181.843 87.409 181.804 86.8291 181.877C86.2491 181.95 85.6904 182.133 85.1859 182.417C84.6813 182.7 84.2413 183.077 83.8918 183.526C83.5423 183.975 83.2904 184.487 83.1511 185.031C83.0117 185.575 82.9877 186.14 83.0806 186.693C83.1734 187.245 83.3811 187.775 83.6914 188.249C84.0017 188.724 84.4084 189.134 84.8872 189.456C85.3661 189.777 85.9074 190.004 86.4793 190.121H102.926C103.888 189.898 104.742 189.37 105.349 188.622C105.957 187.874 106.281 186.951 106.27 186.003Z" fill="#027EE7" stroke="#263238" stroke-miterlimit="10"/>
<path d="M203.857 260.746C262.553 260.746 310.135 215.191 310.135 158.996C310.135 102.801 262.553 57.2465 203.857 57.2465C145.162 57.2465 97.5794 102.801 97.5794 158.996C97.5794 215.191 145.162 260.746 203.857 260.746Z" fill="#027EE7" stroke="#263238" stroke-miterlimit="10"/>
<path d="M182.511 253.136C188.209 254.325 194.007 255.031 199.835 255.245" stroke="#263238" stroke-miterlimit="10"/>
<path d="M169.487 249.522C172.368 250.523 175.297 251.409 178.265 252.158" stroke="#263238" stroke-miterlimit="10"/>
<path d="M107.084 132.638C100.319 155.444 102.573 179.837 113.415 201.151C124.256 222.466 142.924 239.206 165.848 248.17" stroke="#263238" stroke-miterlimit="10"/>
<path d="M120.61 104.928C116.975 110.061 113.862 115.515 111.313 121.216" stroke="#263238" stroke-miterlimit="10"/>
<path d="M189.453 113.805L200.29 115.952L203.985 119.619L208.797 120.33L210.329 124.7L209.204 127.664L205.924 129.101L197.88 127.848L197.665 126.9L201.463 124.364L198.838 119.726L191.648 118.779L187.817 115.639L189.453 113.805Z" fill="#023059" stroke="#263238" stroke-miterlimit="10"/>
<path d="M276.77 209.527L268.176 208.137L257.802 206.876L250.173 208.496L242.704 208.603L235.203 211.926L230.829 213.11L228.116 213.683L223.6 217.61L219.115 220.544L211.534 217.946L211.733 210.986L207.161 210.222L202.237 211.269L201.016 209.336L200.521 204.989L198.255 202.995L194.911 204.202L194.473 206.769L190.347 207.892L185.671 204.439L182.878 199.091L185.04 191.703L192.286 190.656L194.64 191.894L197.601 191.26L200.793 188.357L204.208 188.616L210.337 194.98L212.005 194.385L210.257 189.037L208.126 186.515L207.576 181.931L215.811 176.224L215.013 167.24L218.205 163.336L220.152 157.224L222.506 156.223L227.35 151.486L227.159 149.545L223.272 150.623L222.099 148.888L219.386 149.469L215.396 151.303L216.657 147.819L224.797 143.632L226.273 141.096L230.925 145.55L233.638 147.2L236.83 145.519L234.644 142.769L228.651 140.339L221.301 135.228L214.215 132.531L208.086 132.844L204.472 130.644L200.314 130.537L200.043 131.584L201.136 138.521L202.668 140.675L202.197 148.69L196.404 145.962V142.501L190.69 141.248L187.873 139.124L187.737 132.967L193.73 126.503L192.932 120.735L190.275 121.552L188.065 119.795L186.469 116.418L184.689 116.548L184.585 120.529L181.944 121.583L178.8 113.592L176.557 112.828L172.783 112.148L169.28 114.867L175.241 118.298L177.156 122.118L166.782 117.641L159.153 112.583L157.206 106.311L150.367 105.783L146.154 109.894C145.12 110.841 144.033 111.733 142.898 112.568C141.773 113.332 137.208 114.768 137.208 114.768L137.152 118.985L131.566 120.422L132.66 122.912L142.1 122.393L147.925 126.343L149.84 134.594L148.827 142.478L151.125 150.118L146.904 163.106L149.418 180.625L153.934 190.06L158.882 196.936L162.688 196.623L160.582 193.109L157.956 190.702L155.522 185.774L157.629 184.835L163.039 192.589L167.253 199.61L168.673 205.722L174.61 210.146L184.338 214.333L197.904 214.913L202.692 217.61L206.522 220.75L211.55 222.4L217.295 222.668L222.658 221.277C222.658 221.277 222.961 223.684 223.233 224.868C223.504 226.052 220.99 230.789 220.99 230.789L219.394 236.076L222.586 240.843L228.499 241.814L237.804 247.735L241.579 248.415L242.377 251.952L243.175 253.48C261.659 246.465 277.708 234.608 289.482 219.268L289.219 217.534L293.209 204.546L289.514 203.102L276.77 209.527Z" fill="#023059" stroke="#263238" stroke-miterlimit="10"/>
<path d="M280.776 110.963L277.034 107.059L272.381 102.605L269.756 95.7292L274.352 95.4924L274.049 93.0858L270.793 93.5289L273.227 91.7717L275.805 89.4797L275.254 87.1189L271.424 83.9789L269.62 79.0358C251.418 65.3182 229.035 57.6655 205.874 57.2407C182.713 56.816 160.04 63.6425 141.302 76.6827L147.877 79.3261L145.412 84.2998L140.951 86.2403L141.94 92.7114L140.129 93.8345L138.269 96.9516L139.498 101.146L143.8 100.726L143.002 105.096L147.191 104.21L152.306 93.972L152.171 90.045L158.954 88.1121L160.023 84.911L166.997 82.6877L166.806 78.5239L171.921 77.1869C171.921 77.1869 175.177 74.5129 175.911 74.3601C177.404 74.3513 178.895 74.4483 180.372 74.6504L184.721 76.6903L189.924 75.636L193.754 72.1063L199.524 71.3423C200.456 71.686 201.46 71.8117 202.453 71.709C203.682 71.4416 206.993 69.0121 206.993 69.0121L215.117 71.732L218.564 73.26L219.362 76.7973L223.169 76.484L223.903 74.1004L227.438 74.8644L227.63 76.7973L220.679 80.22L226.065 84.5137L236.024 87.3481L240.812 91.2751L246.335 90.5951L247.021 87.9746L248.88 87.0884L241.387 83.7344L237.341 84.1011L240.318 82.4738L236.431 79.0969L240.565 77.9662L246.638 79.647L249.183 85.0408L252.599 87.5315L256.405 93.8956L262.694 96.5161L264.505 104.294L270.985 106.631L271.32 109.252V112.476L273.786 116.403L274.767 118.42L279.116 118.237L280.154 113.813L280.776 110.963Z" fill="#023059" stroke="#263238" stroke-miterlimit="10"/>
<path d="M278.502 86.5306L278.813 87.8829L278.462 91.9168L279.962 95.0645L282.891 95.4312L283.928 99.9083L280.736 99.3582L282.947 112.247L281.199 118.061L284.694 124.242L288.557 126.389L291.509 139.124L297.008 148.338L302.203 155.153L308.196 155.359L309.073 150.225L309.736 149.461C309.314 145.253 308.624 141.074 307.669 136.947C303.251 117.792 293.119 100.277 278.502 86.5306Z" fill="#023059" stroke="#263238" stroke-miterlimit="10"/>
<path d="M221.246 97.1502L203.41 93.7657L196.324 95.5229L195.638 100.367L191.975 97.9295L186.836 100.26L188.144 108.144L193.284 110.268L195.446 105.111L199.963 107.862L209.076 112.598L212.132 119.123L220.344 125.54L230.303 121.69L229.233 118.214L226.089 114.676L223.408 105.348L224.94 100.817L221.246 97.1502Z" fill="#023059" stroke="#263238" stroke-miterlimit="10"/>
<path d="M235.745 99.511L231.835 99.3506L229.233 102.628L232.545 109.092L235.745 108.412V99.511Z" fill="#023059" stroke="#263238" stroke-miterlimit="10"/>
<path d="M259.685 99.1214L250.333 96.6536L247.947 94.1936L246.143 95.3243L248.96 99.6714L251.865 105.485L255.887 106.112L256.405 105.012L253.365 101.948L260.316 102.941L259.685 99.1214Z" fill="#023059" stroke="#263238" stroke-miterlimit="10"/>
<path d="M207.528 199.511L206.762 200.665L214.638 201.215L218.357 203.889L223.145 203.362L224.27 200.405L218.389 200.665L207.528 199.511Z" fill="#023059" stroke="#263238" stroke-miterlimit="10"/>
<path d="M230.478 199.328L225.635 201.841L226.816 203.575L233.216 202.208L234.014 200.061L231.851 200.772L230.478 199.328Z" fill="#023059" stroke="#263238" stroke-miterlimit="10"/>
<path d="M297.087 221.682L285.532 206.67C285.532 206.67 281.901 205.241 281.542 204.294C280.929 202.57 280.212 200.881 279.396 199.236C279.277 199.012 279.194 198.773 279.148 198.525C279.126 198.374 279.159 198.22 279.241 198.088C279.323 197.957 279.449 197.856 279.599 197.803C279.748 197.749 279.913 197.746 280.064 197.794C280.216 197.842 280.346 197.939 280.433 198.067C280.727 198.439 280.994 198.829 281.231 199.236C281.371 199.577 281.613 199.872 281.925 200.084C281.925 200.084 283.051 201.131 282.723 200.344C282.396 199.557 281.239 194.812 280.912 193.865C280.585 192.918 280.912 192.444 281.71 192.444C282.508 192.444 283.689 196.547 283.689 196.547C283.474 195.599 283.258 194.644 283.035 193.697L282.556 191.581C282.311 191.037 282.215 190.443 282.277 189.854C282.444 189.289 282.987 188.662 283.529 189.281C284.327 190.228 286.003 195.446 286.003 195.446V191.336C286.003 191.336 286.993 190.228 287.655 191.336C288.317 192.444 288.581 196.249 288.581 196.249L288.964 195.003C289.076 194.652 289.068 194.01 289.339 193.727C289.85 193.193 290.137 194.278 290.296 194.652C290.791 195.92 290.129 204.584 290.129 204.584L289.969 206.165L306.504 218.504L298.739 223.409L297.087 221.682Z" fill="#BFBFBF" stroke="#263238" stroke-linecap="round" stroke-linejoin="round"/>
<path d="M328.018 213.08C328.018 213.08 322.081 203.736 311.898 204.546C301.716 205.356 298.747 214.906 298.532 216.976C298.316 219.046 295.986 220.147 295.14 220.223C293.018 220.429 293.441 223.47 294.286 224.486L295.14 225.502C295.14 225.502 296.162 232.753 297.47 233.425C300.232 234.846 305.746 234.846 305.746 234.846L306.384 237.902L317.604 237.046C317.604 237.046 316.335 236.03 317.604 234.197C318.873 232.363 324.61 230.95 327.364 226.686C330.117 222.423 328.656 215.922 328.018 213.08Z" fill="#BFBFBF" stroke="#263238" stroke-linecap="round" stroke-linejoin="round"/>
<path d="M328.018 213.08C328.018 213.08 322.081 203.736 311.898 204.546C311.201 204.606 310.508 204.708 309.823 204.851C311.587 205.096 314.3 205.913 314.867 208.61C315.713 212.675 310.621 215.486 310.837 217.954C311.052 220.422 313.167 223.638 313.805 223.638C314.444 223.638 318.897 225.67 318.051 228.306C317.205 230.942 314.859 231.362 316.774 233.387C317.05 233.667 317.381 233.893 317.748 234.051C319.224 232.294 324.698 230.835 327.379 226.686C330.061 222.538 328.656 215.922 328.018 213.08Z" fill="#263238" stroke="#263238" stroke-linecap="round" stroke-linejoin="round"/>
<path d="M323.565 210.642C323.565 210.642 325.257 202.109 327.379 199.473C329.502 196.837 330.986 201.092 330.986 201.092C330.986 201.092 337.777 195.408 342.23 197.036C346.683 198.663 341.592 201.704 341.592 201.704C341.592 201.704 349.021 200.688 350.928 205.967C352.836 211.246 348.167 212.468 348.167 212.468C348.167 212.468 353.897 217.954 351.359 219.574C348.822 221.193 343.515 220.796 343.515 220.796C343.515 220.796 347.968 222.217 345.63 224.249C343.292 226.281 337.57 222.217 337.57 222.217C337.57 222.217 338.208 226.686 335.024 226.686C331.84 226.686 329.726 221.407 329.726 221.407C329.726 221.407 327.603 224.654 325.903 222.423C324.203 220.192 323.142 211.628 323.565 210.642Z" fill="#263238" stroke="#263238" stroke-linecap="round" stroke-linejoin="round"/>
<path d="M322.504 214.501C322.468 212.873 322.881 211.265 323.702 209.839C324.523 208.413 325.723 207.219 327.18 206.379C332.271 203.323 332.694 206.173 332.694 206.173C332.694 206.173 337.363 202.109 341.392 205.157C345.422 208.205 341.392 212.033 341.392 212.033C341.392 212.033 353.514 211.254 352.197 214.684C350.881 218.114 345.622 218.748 345.622 218.748C345.622 218.748 352.197 224.86 349.229 226.671C346.26 228.482 340.531 226.671 340.531 226.671C340.531 226.671 342.869 229.513 338.416 230.728C333.963 231.943 331.625 227.481 331.625 227.481C331.625 227.481 333.109 229.307 327.595 228.902C322.081 228.497 321.865 222.026 321.865 222.026C321.865 222.026 316.567 221.407 322.504 214.501Z" fill="#263238" stroke="#263238" stroke-linecap="round" stroke-linejoin="round"/>
<path d="M312.537 224.654C312.537 224.654 316.351 220.59 318.051 224.043C319.751 227.496 315.928 232.776 312.537 230.338" fill="#BFBFBF"/>
<path d="M312.537 224.654C312.537 224.654 316.351 220.59 318.051 224.043C319.751 227.496 315.928 232.776 312.537 230.338" stroke="#263238" stroke-linecap="round" stroke-linejoin="round"/>
<path d="M302.969 218.504C302.801 219.383 302.235 220.032 301.724 219.933C301.213 219.833 300.926 219.046 301.093 218.168C301.261 217.289 301.828 216.64 302.346 216.739C302.865 216.838 303.144 217.648 302.969 218.504Z" fill="#263238"/>
<path d="M301.716 213.92C301.716 213.92 304.469 212.293 305.107 216.563" stroke="#263238" stroke-linecap="round" stroke-linejoin="round"/>
<path d="M297.048 226.075C297.048 226.075 298.747 227.091 301.716 225.265" stroke="#263238" stroke-linecap="round" stroke-linejoin="round"/>
<path d="M317.412 303.858C317.412 303.858 326.023 314.76 327.786 314.76C329.55 314.76 354.36 305.065 354.36 305.065C356.14 305.941 357.696 307.183 358.916 308.702C360.441 310.879 359.172 314.279 362.212 314.279C365.253 314.279 364.239 307.006 363.226 304.347C362.212 301.688 360.185 294.652 358.438 293.926C356.69 293.2 350.593 298.289 350.593 298.289L339.15 301.918C337.634 302.399 328.521 303.858 328.521 303.858H317.412Z" fill="#BFBFBF" stroke="#263238" stroke-linecap="round" stroke-linejoin="round"/>
<path d="M358.422 293.918C357.201 293.422 353.953 295.668 352.038 297.127C353.913 298.594 356.906 300.703 356.906 300.703C356.197 301.33 355.434 301.897 354.623 302.399C353.107 303.369 354.368 305.065 354.368 305.065C356.148 305.941 357.704 307.183 358.924 308.702C360.449 310.879 359.18 314.279 362.22 314.279C365.261 314.279 364.247 307.006 363.234 304.347C362.22 301.688 360.193 294.644 358.422 293.918Z" fill="white" stroke="#263238" stroke-linecap="round" stroke-linejoin="round"/>
<path d="M363.09 314.004C365.061 312.728 364.159 306.693 363.258 304.316C362.244 301.65 360.217 294.621 358.47 293.896C357.983 293.697 357.177 293.934 356.267 294.384C358.201 296.95 359.844 299.706 361.167 302.605C362.89 306.723 363.92 310.681 363.234 313.477C363.138 313.683 363.09 313.859 363.09 314.004Z" fill="#E0E0E0" stroke="#263238" stroke-linecap="round" stroke-linejoin="round"/>
<path d="M298.173 301.918C298.173 301.918 297.415 310.398 298.971 312.82C300.527 315.242 306.312 338.994 306.312 339.72C306.203 340.78 306.035 341.833 305.81 342.876C305.81 342.876 303.783 348.224 299.984 350.141C296.186 352.059 293.911 354.504 295.938 355.489C297.965 356.475 307.326 353.793 309.863 352.823C312.401 351.853 317.963 350.156 318.21 347.979C318.458 345.802 314.412 339.483 314.412 338.269C314.412 337.054 315.936 326.633 315.681 321.063C315.425 315.494 311.882 309.183 311.882 309.183L312.138 303.125L298.173 301.918Z" fill="#BFBFBF" stroke="#263238" stroke-linecap="round" stroke-linejoin="round"/>
<path d="M318.171 347.964C318.338 346.535 316.662 343.342 315.481 340.966L308.299 343.846C308.277 343.32 308.128 342.806 307.865 342.344C307.602 341.881 307.232 341.483 306.783 341.179C306.594 341.044 306.365 340.966 306.129 340.958C305.977 341.867 305.77 342.876 305.77 342.876C305.77 342.876 303.743 348.224 299.944 350.141C296.146 352.059 293.871 354.504 295.898 355.489C297.925 356.475 307.286 353.793 309.824 352.823C312.361 351.853 317.923 350.141 318.171 347.964Z" fill="white" stroke="#263238" stroke-linecap="round" stroke-linejoin="round"/>
<path d="M318.171 347.964C318.189 347.375 318.089 346.789 317.875 346.237C313.784 348.754 309.41 350.822 304.836 352.403C299.809 354.114 296.856 354.534 295.156 354.542C295.178 354.749 295.26 354.946 295.392 355.11C295.525 355.275 295.703 355.401 295.906 355.474C297.933 356.444 307.294 353.778 309.831 352.808C312.369 351.837 317.923 350.141 318.171 347.964Z" fill="#E0E0E0" stroke="#263238" stroke-linecap="round" stroke-linejoin="round"/>
<path d="M299.178 271.533L290.584 304.584C290.584 304.584 296.657 308.221 314.125 307.006C331.593 305.791 340.953 299.732 340.953 299.732C340.953 299.732 339.437 295.615 338.679 294.889C337.78 293.882 336.935 292.832 336.15 291.741L328.776 268.928L299.178 271.533Z" fill="white" stroke="#263238" stroke-linecap="round" stroke-linejoin="round"/>
<path d="M303.998 275.017L301.213 286.408" stroke="#263238" stroke-linecap="round" stroke-linejoin="round"/>
<path d="M313.367 275.254V282.772" stroke="#263238" stroke-linecap="round" stroke-linejoin="round"/>
<path d="M324.499 274.528L328.553 287.615" stroke="#263238" stroke-linecap="round" stroke-linejoin="round"/>
<path d="M320.604 238.727C320.604 238.727 316.678 236.236 312.545 236.236C308.411 236.236 302.665 236.061 302.665 236.061C302.665 236.061 287.95 229.697 284.311 227.275C280.673 224.853 270.506 213.408 270.506 213.408C270.954 212.01 271.279 210.579 271.48 209.13C271.48 208.03 271.352 207.052 271.352 205.707C271.352 204.362 271.735 202.888 270.33 203.01C268.926 203.132 269.437 205.585 269.532 205.951C269.628 206.318 268.734 208.519 268.734 208.519C268.734 208.519 267.936 204.485 267.585 202.766C267.234 201.047 266.947 198.732 266.436 198.732C265.926 198.732 265.159 199.343 265.287 199.954C265.415 200.565 265.527 206.349 265.527 206.349L264.649 205.34L262.877 200.168C262.239 198.334 261.09 199.312 261.09 200.412C261.09 201.513 262.877 207.288 262.877 207.288L262.239 207.9C262.239 207.9 259.941 203.866 259.557 203.255C259.174 202.643 258.536 202.88 259.047 204.721C259.633 206.506 260.314 208.261 261.09 209.978L258.025 207.808C257.515 207.441 257.004 208.664 258.025 209.397C259.394 210.581 260.634 211.894 261.728 213.316C263.058 214.666 264.467 215.941 265.949 217.136C265.949 217.136 275.406 230.843 277.959 233.41C280.513 235.977 284.734 239.896 284.734 239.896C284.734 239.896 290.743 243.815 293.552 245.527L301.987 250.592L302.498 252.678L299.178 271.518C299.178 271.518 299.05 273.963 310.294 274.207C321.538 274.452 327.802 271.915 328.568 270.051C329.335 268.187 324.738 250.103 323.717 244.969C322.695 239.835 320.604 238.727 320.604 238.727Z" fill="#BFBFBF" stroke="#263238" stroke-linecap="round" stroke-linejoin="round"/>
<path d="M320.604 238.727C320.604 238.727 316.678 236.236 312.545 236.236C311.013 236.236 309.273 236.236 307.677 236.183C310.366 237.283 314.524 240.003 313.869 246.237C313.023 254.313 308.427 259.37 302.219 254.267L299.178 271.533C299.178 271.533 299.05 273.978 310.294 274.223C321.538 274.467 327.802 271.931 328.568 270.066C329.335 268.202 324.738 250.118 323.717 244.984C322.695 239.85 320.604 238.727 320.604 238.727Z" fill="#E0E0E0" stroke="#263238" stroke-linecap="round" stroke-linejoin="round"/>
<path d="M48.6301 320.055L43.3713 324.158C43.3713 324.158 38.1205 326.014 35.9738 327.512C33.8272 329.009 35.5828 331.981 36.5564 333.096C37.5299 334.212 40.2591 335.518 42.0067 337.948C43.7543 340.377 46.292 343.907 49.4042 344.824C52.5164 345.741 53.6894 345.198 53.6894 343.151C53.6894 341.103 50.3777 336.809 49.9867 334.945C49.5957 333.081 49.1887 329.169 49.1887 329.169L52.9074 324.7L48.6301 320.055Z" fill="white" stroke="#263238" stroke-linecap="round" stroke-linejoin="round"/>
<path d="M49.2127 329.185L47.074 329.376L45.7094 329.933L42.4456 324.494C40.1899 325.293 38.0222 326.304 35.9738 327.512C33.8352 329.001 35.5828 331.981 36.5564 333.096C37.5299 334.212 40.2591 335.518 42.0067 337.948C43.7543 340.377 46.292 343.907 49.4042 344.824C52.5164 345.741 53.6894 345.198 53.6894 343.143C53.6894 341.088 50.3777 336.809 49.9867 334.945C49.5957 333.081 49.2127 329.185 49.2127 329.185Z" fill="white" stroke="#263238" stroke-linecap="round" stroke-linejoin="round"/>
<path d="M65.3642 284.277L64.5662 305.149L47.082 320.804L53.6974 329.559L78.4354 312.041L83.8858 300.114L68.7238 284.834C68.7238 284.834 65.3642 283.154 65.3642 284.277Z" fill="#263238" stroke="#263238" stroke-linecap="round" stroke-linejoin="round"/>
<path d="M81.9147 332.539L79.5766 343.533C79.5766 343.533 76.4644 350.989 77.4379 352.479C78.4115 353.969 88.3386 355.092 91.2513 355.459C94.164 355.825 99.4308 355.833 101.178 354.695C102.926 353.556 102.152 352.273 100.987 351.715C99.8218 351.157 92.6159 346.306 91.6423 345.748C90.6687 345.19 89.1126 342.952 89.1126 342.952L91.6423 335.495L81.9147 332.539Z" fill="white" stroke="#263238" stroke-linecap="round" stroke-linejoin="round"/>
<path d="M101.178 354.718C102.934 353.594 102.152 352.296 100.987 351.738C99.8218 351.18 92.6159 346.329 91.6423 345.771C90.6687 345.213 89.1126 342.975 89.1126 342.975C89.1126 342.975 86.7745 343.907 86.7745 344.656V345.954L79.385 343.999C78.7307 345.649 76.608 351.211 77.4379 352.479C78.4115 353.969 88.3386 355.092 91.2513 355.459C94.164 355.825 99.4308 355.833 101.178 354.718Z" fill="white" stroke="#263238" stroke-linecap="round" stroke-linejoin="round"/>
<path d="M65.3642 285.392L85.6095 307.013L79.002 333.287L93.2064 337.016C93.2064 337.016 101.984 307.013 102.551 305.149C103.118 303.285 92.8234 285.583 92.8234 285.583C90.1449 283.478 86.9112 282.122 83.4788 281.664C77.406 280.732 65.3642 285.392 65.3642 285.392Z" fill="#263238" stroke="#263238" stroke-linecap="round" stroke-linejoin="round"/>
<path d="M109.901 206.502L115.862 202.552C115.862 202.552 116.66 196.233 116.779 195.676C116.899 195.118 119.899 191.458 120.538 191.199C121.556 190.846 122.539 190.406 123.475 189.885C123.842 189.533 124.847 189.617 124.759 190.236C124.574 190.927 124.329 191.602 124.025 192.253C124.025 192.253 126.22 189.617 126.315 191.489C126.411 193.361 124.209 195.179 123.921 196.317C123.634 197.456 122.916 200.97 122.916 200.97C122.916 200.97 126.212 197.723 126.675 197.02C127.137 196.317 128.143 197.112 127.776 198.166C127.409 199.221 126.028 201.062 125.485 202.75C124.943 204.439 121.902 206.089 120.897 206.349C119.892 206.609 118.695 206.968 118.695 206.968L111.361 214.867L107.419 207.663L109.901 206.502Z" fill="white" stroke="#263238" stroke-linecap="round" stroke-linejoin="round"/>
<path d="M124.025 192.284C124.025 192.284 122.373 194.476 122.373 194.912C122.087 195.923 121.727 196.913 121.296 197.876" stroke="#263238" stroke-linecap="round" stroke-linejoin="round"/>
<path d="M122.74 190.442C122.74 190.442 120.634 193.598 120.083 194.476C119.671 195.451 119.423 196.483 119.349 197.532" stroke="#263238" stroke-linecap="round" stroke-linejoin="round"/>
<path d="M119.253 192.528C118.774 193.412 118.345 194.32 117.968 195.248C117.968 195.515 117.785 197.005 117.785 197.005" stroke="#263238" stroke-linecap="round" stroke-linejoin="round"/>
<path d="M110.515 206.922C111.334 208.13 111.79 209.531 111.832 210.971C111.967 213.5 113.428 216.151 113.819 216.281C114.21 216.411 116.723 216.281 116.324 218.175C116.034 219.404 115.492 220.565 114.728 221.591C114.728 221.591 114.202 229.307 113.539 230.568C112.877 231.828 104.035 231.079 104.035 231.079C104.035 231.079 100.468 237.65 100.468 238.032C100.468 238.414 88.977 232.844 88.977 232.844L89.368 228.673C87.4121 227.364 85.637 225.824 84.0853 224.089C82.582 222.507 81.4164 220.659 80.6539 218.649C80.5877 215.525 81.2161 212.424 82.4972 209.55C84.6119 204.966 92.4084 201.956 100.205 201.452C108.001 200.947 110.515 206.922 110.515 206.922Z" fill="white" stroke="#263238" stroke-linecap="round" stroke-linejoin="round"/>
<path d="M100.604 215.524C100.74 214.386 99.8059 211.345 99.8059 211.345L97.1645 205.149C97.1645 205.149 88.7376 208.61 81.7232 211.559C80.964 213.861 80.6028 216.266 80.6539 218.68C81.4164 220.69 82.582 222.538 84.0853 224.119C85.637 225.855 87.4121 227.395 89.368 228.703C90.5274 228.335 91.7224 228.079 92.9351 227.939C92.9351 227.939 87.6523 224.02 89.8947 221.866C92.1371 219.711 95.1854 221.866 95.4807 222.248C95.776 222.63 97.7231 222.752 97.7231 221.995C97.5496 220.922 97.2827 219.864 96.9251 218.833C96.9251 218.833 100.476 216.663 100.604 215.524Z" fill="#263238" stroke="#263238" stroke-linecap="round" stroke-linejoin="round"/>
<path d="M100.341 212.614L107.738 209.558L107.076 204.622L109.717 208.442L113.547 206.15C113.547 206.15 112.231 200.802 103.908 198.434C95.5844 196.065 88.8493 196.661 81.9785 203.369C75.1078 210.077 80.7895 223.348 80.7895 223.348L89.9027 218.664V213.989L92.0174 216.9L100.341 212.614Z" fill="#263238" stroke="#263238" stroke-linecap="round" stroke-linejoin="round"/>
<path d="M110.228 214.615C110.459 215.425 110.387 216.143 110.068 216.227C109.749 216.311 109.27 215.723 109.079 214.913C108.887 214.103 108.919 213.385 109.238 213.301C109.557 213.217 109.996 213.805 110.228 214.615Z" fill="#263238"/>
<path d="M110.922 214.172C110.922 214.172 109.725 212.774 108.265 213.408" stroke="#263238" stroke-linecap="round" stroke-linejoin="round"/>
<path d="M107.076 212.484C107.324 211.936 107.729 211.467 108.245 211.132C108.76 210.796 109.365 210.608 109.988 210.589" stroke="#263238" stroke-linecap="round" stroke-linejoin="round"/>
<path d="M113.42 223.615C112.681 223.89 111.869 223.928 111.106 223.722C110.344 223.517 109.671 223.08 109.19 222.477" stroke="#263238" stroke-linecap="round" stroke-linejoin="round"/>
<path d="M103.461 239.988L87.1177 230.147C87.1177 230.147 62.8345 273.069 61.1986 278.211C59.5627 283.352 61.6615 285.851 67.7342 286.928C73.807 288.005 80.8135 286.034 83.8459 284.919C86.8783 283.803 93.4219 287.379 93.4219 287.379C93.4219 287.379 94.5869 288.716 95.0578 287.6C95.5286 286.485 95.752 282.68 95.752 280.892C95.752 279.104 104.394 247.139 104.394 243.785C104.394 240.431 103.461 239.988 103.461 239.988Z" fill="#E0E0E0" stroke="#263238" stroke-linecap="round" stroke-linejoin="round"/>
<path d="M99.4547 249.828C99.4547 249.828 85.6414 253.9 82.6967 254.152" stroke="#263238" stroke-linecap="round" stroke-linejoin="round"/>
<path d="M82.992 261.617C81.9626 262.19 81.0529 262.694 80.3027 263.091" stroke="#263238" stroke-linecap="round" stroke-linejoin="round"/>
<path d="M99.4547 251.891C99.4547 251.891 91.9136 256.475 85.8249 260.004" stroke="#263238" stroke-linecap="round" stroke-linejoin="round"/>
<path d="M88.7855 281.992C89.7113 282.429 90.6117 282.914 91.4827 283.444" stroke="#263238" stroke-linecap="round" stroke-linejoin="round"/>
<path d="M77.1347 279.884C77.1347 279.884 80.8933 279.12 86.2399 280.969" stroke="#263238" stroke-linecap="round" stroke-linejoin="round"/>
<path d="M85.4818 232.829L88.5141 228.138C88.5141 228.138 91.3231 228.36 95.5206 231.041C99.7181 233.723 103.501 239.988 103.501 239.988L85.4818 232.829Z" fill="#E0E0E0" stroke="#263238" stroke-linecap="round" stroke-linejoin="round"/>
<path d="M116.771 245.802L140.823 233.501V226.35L143.855 220.758C143.855 220.758 144.542 219.406 145.707 220.078L145.124 220.964L146.305 219.581C146.305 219.581 147.271 218.733 147.901 218.114C148.532 217.496 149.09 218.114 149.274 218.466C149.457 218.817 149.41 218.619 149.41 218.619C149.599 218.505 149.811 218.43 150.032 218.4C150.254 218.37 150.479 218.384 150.694 218.443C151.716 218.878 149.689 222.217 149.689 222.217C149.689 222.217 152.25 220.376 152.25 221.514C152.25 222.653 149.226 225.785 149.226 225.785C149.226 225.785 152.418 223.974 152.418 225.021C152.418 226.068 148.109 229.765 148.109 229.765C147.653 231.688 146.957 233.55 146.034 235.312C145.364 236.5 144.346 237.474 143.105 238.116C143.105 238.116 123.483 253.923 120.091 255.497C118.13 256.441 115.865 256.63 113.763 256.024L115.87 246.092L116.771 245.802Z" fill="white" stroke="#263238" stroke-linecap="round" stroke-linejoin="round"/>
<path d="M149.418 218.619C149.418 218.619 146.672 222.217 146.305 222.653C145.712 223.678 145.179 224.734 144.709 225.815" stroke="#263238" stroke-linecap="round" stroke-linejoin="round"/>
<path d="M146.305 219.581C145.308 220.938 144.389 222.346 143.552 223.799C143.369 224.41 143.185 225.197 143.185 225.197" stroke="#263238" stroke-linecap="round" stroke-linejoin="round"/>
<path d="M149.697 222.217C149.697 222.217 147.861 224.509 147.59 225.021C147.319 225.533 146.489 226.694 146.489 226.694" stroke="#263238" stroke-linecap="round" stroke-linejoin="round"/>
<path d="M149.234 225.785L147.989 227.16" stroke="#263238" stroke-linecap="round" stroke-linejoin="round"/>
<path d="M94.3555 237.528L117.936 244.006L112.35 263.236C112.35 263.236 93.9007 248.72 92.967 247.36" fill="#E0E0E0"/>
<path d="M94.3555 237.528L117.936 244.006L112.35 263.236C112.35 263.236 93.9007 248.72 92.967 247.36" stroke="#263238" stroke-linecap="round" stroke-linejoin="round"/>
<path d="M104.043 231.079L100.253 230.27L101.849 234.594L104.043 231.079Z" fill="#263238" stroke="#263238" stroke-linecap="round" stroke-linejoin="round"/>
</svg>
